# xmcd
#
# Track frame offsets:
#	150
#	13782
#	26482
#	44890
#	63697
#	77872
#	93947
#	107075
#	132192
#	146155
#	162345
#	175909
#	187042
#	201000
#	215917
#	231197
#	248990
#	266072
#	277732
#	292472
#
# Disc length: 4065 seconds
#
# Revision: 0
# Processed by: cddbd v1.5PL3 Copyright (c) Steve Scherf et al.
# Submitted via: dBpowerAMP V4.0
#
DISCID=3f0fdf14
DTITLE=Johnny Chester - The Nashville Sessions
DYEAR=1900
DGENRE=
TTITLE0=Brand New
TTITLE1=(Just Like) Honey On A Biscuit
TTITLE2=Love Has A Whole Lot To Answer For
TTITLE3=She's Gone To Someone Else's Arms
TTITLE4=Back On The Road Again
TTITLE5=Same Such Foolishness
TTITLE6=Gwen Congratulations
TTITLE7=Three Rivers Hotel
TTITLE8=Lord I'd Forgotten
TTITLE9=I Love You So Rebecca
TTITLE10=Life After Louise
TTITLE11=You've Still Got A Hold Of My Dreams
TTITLE12=Hung Up On Love
TTITLE13=(Have We Got) Love Or The Next Best Thing
TTITLE14=Another Texas Morning
TTITLE15=Alburquerque Moon
TTITLE16=Runaway
TTITLE17=The World's Greatest Mum
TTITLE18=She's My Kind Of Woman
TTITLE19=Tomorrow's Memories Tonight
EXTD=
EXTT0=
EXTT1=
EXTT2=
EXTT3=
EXTT4=
EXTT5=
EXTT6=
EXTT7=
EXTT8=
EXTT9=
EXTT10=
EXTT11=
EXTT12=
EXTT13=
EXTT14=
EXTT15=
EXTT16=
EXTT17=
EXTT18=
EXTT19=
PLAYORDER=
